<svg xmlns="http://www.w3.org/2000/svg" width="1044" height="344"><g fill="none"><path fill="#263238" d="M553.054419 187.573662c-3.567062-33.056547-31.024444-57.476608-66.605134-57.476608-34.581513 0-63.048064 28.988202-66.605134 57.476608h133.210268zm37.149398 99.379555c1.466631.988848 2.4524 2.546866 2.718192 4.296128.265793 1.749261-.212676 3.52995-1.319345 4.910125-22.681316 28.628349-54.744903 46.98088-101.086729 46.98088-75.757594 0-129.643206-53.908061-129.643206-130.716801 0-74.769571 54.395192-130.7168017 126.585725-130.7168017 72.710104 0 124.057807 56.4570237 124.057807 130.7168017 0 2.508978-.10991 7.386993-.209828 11.395362-.086794 3.564426-3.000594 6.40845-6.564592 6.407392h-185.40727c2.547901 36.115302 34.571522 63.07433 71.690944 63.07433 27.457382 0 42.564937-9.995931 55.51427-26.649154 2.099357-2.742377 5.961499-3.392884 8.842716-1.489394 8.522979 5.797641 25.768773 15.793573 34.821316 21.791132m167.821756-1.879235c-27.527324 0-40.236855-12.714826-40.236855-41.313187V139.17336h28.736328c3.631043 0 6.574585-2.944768 6.574585-6.577324V93.8518045c-.005503-3.6302728-2.945824-6.5718186-6.574585-6.5773232h-28.686369V25.0598012c.002657-1.7452281-.689166-3.419741-1.922717-4.6538052-1.23355-1.234064-2.907366-1.9235255-4.651867-1.9235255h-43.963785c-3.631043 0-6.574584 2.9447754-6.574584 6.5773307V87.324461h-27.417415c-3.62714.0055146-6.564608 2.9486679-6.564608 6.5773232v38.7442318c-.002637 1.743495.687816 3.41649 1.919204 4.650265s2.902634 1.92706 4.645404 1.927058h27.38744v115.66292c0 53.978032 31.23427 86.324876 83.111536 86.324876 8.992592 0 15.347358-.999593 22.42153-3.58854 4.504782-1.684901 7.469967-6.014596 7.415435-10.825594l-.141427-35.985355c-.031234-1.877758-.864538-3.652301-2.289304-4.875129-1.424764-1.222828-3.304659-1.776931-5.164556-1.522267a67.6666828 67.6666828 0 01-8.02339.659732zm156.301246 0c-27.527324 0-40.226863-12.714826-40.226863-41.313187V139.17336h28.736328c1.742771.000002 3.414017-.693283 4.645405-1.927059 1.231387-1.233775 1.92184-2.90677 1.919188-4.650265V93.8518045c.000004-3.6286552-2.937453-6.5718085-6.564593-6.5773232h-28.736328V25.0598012c0-3.6325553-2.943541-6.5773231-6.574584-6.5773231h-43.963785c-1.74277 0-3.414016.6932828-4.645404 1.9270583-1.231388 1.2337756-1.921841 2.9067701-1.919188 4.6502648V87.324461h-27.377448c-3.628761.0055045-6.569082 2.9470504-6.574584 6.5773232v38.7442318c0 1.744415.692677 3.417382 1.925651 4.65087 1.232974 1.233487 2.905244 1.926453 4.648933 1.926453h27.38744v115.662928c0 53.978032 31.23427 86.324868 83.111536 86.324868 8.992592 0 15.347358-.999593 22.42153-3.58854 4.499064-1.692204 7.461094-6.017292 7.414992-10.825594l-.140984-35.985355c-.034076-1.878634-.869644-3.652998-2.295921-4.875483-1.426275-1.222486-3.307071-1.776365-5.16793-1.521913-2.658971.379328-5.338194.59963-8.023391.659732zM163.165592 164.363108v37.364793c0 1.741764.691624 3.41219 1.922724 4.643803 1.2311 1.231612 2.90083 1.923525 4.641868 1.923525h101.566334c-7.583753 47.980473-46.961315 82.086592-99.597956 82.086592-64.027257 0-113.8262346-53.138374-113.8262346-118.141919 0-65.483349 50.2685906-118.1519146 113.3466306-118.1519146 35.350879 0 65.376146 14.3241704 85.059931 40.1536584 2.030784 2.655673 5.735498 3.3538285 8.592922 1.619341l38.108607-23.0606149c1.414056-.8589329 2.402293-2.2727381 2.723438-3.8962421.321145-1.623504-.054356-3.3072949-1.034829-4.6402837C276.692074 25.6695531 228.631664 0 171.698562 0 77.3662692 0 0 77.338525 0 172.239902 0 267.14128 75.9374462 344 171.218958 344c94.392244 0 158.749229-71.640844 158.749229-164.173185v-14.773988c0-1.744415-.692677-3.417382-1.925651-4.65087-1.232974-1.233487-2.905244-1.926453-4.648933-1.926453H169.050744c-3.25028 0-5.885152 2.63597-5.885152 5.887604"/><path fill="#FF9D00" d="M1009.09875 270.120067c-14.667917 0-23.660509 2.219097-28.826254 8.516534-4.446337 5.397804-6.074996 13.804382-6.074996 26.399256 0 13.284594 1.818502 21.921079 6.844362 27.268903 5.275654 5.627709 14.088395 7.636892 28.056888 7.636892 15.98683 0 25.17926-2.618935 30.09521-10.255826 3.48713-5.417796 4.80604-13.34457 4.80604-24.649969 0-13.484512-1.87845-22.170976-7.06418-27.508804-5.18573-5.337828-14.06841-7.406986-27.83707-7.406986z"/></g></svg>